<?xml version="1.0" standalone="no"?><svg width="1488" height="1848" viewBox="276 96 768 948" xmlns="http://www.w3.org/2000/svg" xmlns:xlink="http://www.w3.org/1999/xlink"><style>line.bg { stroke: rgba(3, 148, 172, 0.7); stroke-width: 1px; }circle.bg { fill: rgba(100, 220, 240, 0.7); }line.bg-sub { stroke: rgba(140, 240, 240, 0.5); stroke-width: 1px; }g.u rect, g.u path, g.u circle { fill: none; stroke-width: 2px; stroke-linejoin: round; }pattern line { vector-effect: non-scaling-stroke; }.zoomed-out pattern line { vector-effect: none; }text { stroke-width: 0px; font-family: sans-serif; }text tspan { white-space: pre; }.ui-dark { background: rgb(51, 51, 51); }.ui-dark line.bg { stroke: rgba(172, 232, 242, 0.57); stroke-width: 1px; }.ui-dark circle.bg { fill: rgba(100, 220, 240, 0.3); }.ui-dark line.bg-sub { stroke: rgba(140, 240, 240, 0.1); stroke-width: 1px; }rect.marquee { fill: rgba(234, 255, 231, 0.3); stroke: rgb(98, 137, 95); stroke-width: 1px; stroke-dasharray: 4px; vector-effect: non-scaling-stroke; }rect.highlight { fill: blue; opacity: 0.5; }.bg rect { stroke: rgba(3, 148, 172, 0.7); stroke-width: 1px; }</style><defs class="ic"></defs><defs><marker id="arrowhead" viewBox="0 0 15 15" refX="5" refY="5" markerWidth="5" markerHeight="5" orient="auto-start-reverse"><path stroke="context-stroke" fill="context-stroke" d="M 0 0 L 10 5 L 0 10 z"></path></marker></defs><g xmlns="http://www.w3.org/2000/svg" class="u current" data-layer="Layer 1" style="visibility: visible;"><path d="M 300 120 L 480 120 L 480 300 L 360 210 L 420 210 L 300 300 Z" class="" style="fill: rgba(0, 0, 0, 0); stroke-width: 2px; stroke-linejoin: round;" stroke="rgba(41, 173, 255, 1)" id="nv9cvs5y" data-mut=""/><path d="M 351.429 261.429 L 390 300 L 428.571 261.429" class="" style="fill: rgba(0, 0, 0, 0); stroke-width: 2px; stroke-linejoin: round;" stroke="rgba(41, 173, 255, 1)" id="cmlpfgow" data-mut=""/><path d="M 540 210 L 600 120 L 660 210 L 600 300 Z" class="" style="fill: rgba(0, 0, 0, 0); stroke-width: 2px; stroke-linejoin: round;" stroke="rgba(41, 173, 255, 1)" id="5b7z4ekk" data-mut=""/><path d="M 600 255 L 570 210 L 600 165 L 630 210 Z" class="" style="fill: rgba(0, 0, 0, 0); stroke-width: 2px; stroke-linejoin: round;" stroke="rgba(41, 173, 255, 1)" id="z2z2k3jp" data-mut=""/><path d="M 600 165 L 600 255" class="" style="fill: rgba(0, 0, 0, 0); stroke-width: 2px; stroke-linejoin: round;" stroke="rgba(41, 173, 255, 1)" id="ur0wnxiv" data-mut=""/><path d="M 300 360 L 300 450 L 360 450 L 360 360" class="" style="fill: rgba(0, 0, 0, 0); stroke-width: 2px; stroke-linejoin: round;" stroke="rgba(41, 173, 255, 1)" id="e4fpg86y" data-mut=""/><path d="M 330 450 L 330 510 L 330 525 L 345 540 L 405 540 L 420 525 L 420 420" class="" style="fill: rgba(0, 0, 0, 0); stroke-width: 2px; stroke-linejoin: round;" stroke="rgba(41, 173, 255, 1)" id="69ogvl79" data-mut=""/><path d="M 405 435 L 420 420 L 435 435" class="" style="fill: rgba(0, 0, 0, 0); stroke-width: 2px; stroke-linejoin: round;" stroke="rgba(41, 173, 255, 1)" id="7rsumerq" data-mut=""/><path d="M 300 465 L 360 465" class="" style="fill: rgba(0, 0, 0, 0); stroke-width: 2px; stroke-linejoin: round;" stroke="rgba(41, 173, 255, 1)" id="yufnegei" data-mut=""/><path d="M 480 540 L 480 495 L 615 360 L 660 360" class="" style="fill: rgba(0, 0, 0, 0); stroke-width: 2px; stroke-linejoin: round;" stroke="rgba(41, 173, 255, 1)" id="squeln6h" data-mut=""/><path d="M 510 390 L 630 510" class="" style="fill: rgba(0, 0, 0, 0); stroke-width: 2px; stroke-linejoin: round;" stroke="rgba(41, 173, 255, 1)" id="b7hbfxg4" data-mut=""/><path d="M 510 420 L 510 390 L 540 390" class="" style="fill: rgba(0, 0, 0, 0); stroke-width: 2px; stroke-linejoin: round;" stroke="rgba(41, 173, 255, 1)" id="e0a49w6o" data-mut=""/><path d="M 615 435 L 555 495" class="" style="fill: rgba(0, 0, 0, 0); stroke-width: 2px; stroke-linejoin: round;" stroke="rgba(41, 173, 255, 1)" id="hwy6x5y1" data-mut=""/><path d="M 810 540 L 810 570 L 870 570 L 870 540" class="" style="fill: rgba(0, 0, 0, 0); stroke-width: 2px; stroke-linejoin: round;" stroke="rgba(41, 173, 255, 1)" id="3nkfw8or" data-mut="" transform="matrix(1, 0, 0, 1, 0, -180)"/><path d="M 840 570 L 840 660 L 720 660" class="" style="fill: rgba(0, 0, 0, 0); stroke-width: 2px; stroke-linejoin: round;" stroke="rgba(41, 173, 255, 1)" id="1y7q0e4h" data-mut="" transform="matrix(1, 0, 0, 1, 0, -180)"/><path d="M 750 600 L 765 600 L 765 630 L 720 675 L 720 735 L 765 780 L 810 780 L 855 735 L 855 675 L 810 630 L 810 600 L 825 600" class="" style="fill: rgba(0, 0, 0, 0); stroke-width: 2px; stroke-linejoin: round;" stroke="rgba(41, 173, 255, 1)" id="vkh6im2p" data-mut="" transform="matrix(1, 0, 0, 1, -420, 0)"/><path d="M 1020 300 L 1050 300 L 1050 150 L 1230 150 L 1230 300 L 1260 300" class="" style="fill: rgba(0, 0, 0, 0); stroke-width: 2px; stroke-linejoin: round;" stroke="rgba(41, 173, 255, 1)" id="k5io6fxr" data-mut="" transform="matrix(1, 0, 0, 1, -300, 0)"/><path d="M 1140 150 L 1140 120" class="" style="fill: rgba(0, 0, 0, 0); stroke-width: 2px; stroke-linejoin: round;" stroke="rgba(41, 173, 255, 1)" id="scp0d3d5" data-mut="" transform="matrix(1, 0, 0, 1, -300, 0)"/><path d="M 840 600 L 840 720 L 870 780 L 900 720 L 900 600" class="" style="fill: rgba(0, 0, 0, 0); stroke-width: 2px; stroke-linejoin: round;" stroke="rgba(41, 173, 255, 1)" id="l1bmamdy" data-mut="" transform="matrix(1, 0, 0, 1, -60, 0)"/><path d="M 825 690 L 915 690" class="" style="fill: rgba(0, 0, 0, 0); stroke-width: 2px; stroke-linejoin: round;" stroke="rgba(41, 173, 255, 1)" id="7wi96e2v" data-mut="" transform="matrix(1, 0, 0, 1, -60, 0)"/><path d="M 300 840 L 300 870 L 420 870 L 420 840" class="" style="fill: rgba(0, 0, 0, 0); stroke-width: 2px; stroke-linejoin: round;" stroke="rgba(41, 173, 255, 1)" id="hh17nc54" data-mut=""/><path d="M 330 960 L 390 960" class="" style="fill: rgba(0, 0, 0, 0); stroke-width: 2px; stroke-linejoin: round;" stroke="rgba(41, 173, 255, 1)" id="82b10z1h" data-mut=""/><path d="M 360 870 L 360 960" class="" style="fill: rgba(0, 0, 0, 0); stroke-width: 2px; stroke-linejoin: round;" stroke="rgba(41, 173, 255, 1)" id="rrlrnufo" data-mut=""/><path d="M 720 870 L 900 870" class="" style="fill: rgba(0, 0, 0, 0); stroke-width: 2px; stroke-linejoin: round;" stroke="rgba(41, 173, 255, 1)" id="lnyeqval" data-mut="" transform="matrix(1, 0, 0, 1, -240, 0)"/><path d="M 795 945 L 795 870" class="" style="fill: rgba(0, 0, 0, 0); stroke-width: 2px; stroke-linejoin: round;" stroke="rgba(41, 173, 255, 1)" id="bxto5ih2" data-mut="" transform="matrix(1, 0, 0, 1, -240, 0)"/><path d="M 825 945 L 825 870" class="" style="fill: rgba(0, 0, 0, 0); stroke-width: 2px; stroke-linejoin: round;" stroke="rgba(41, 173, 255, 1)" id="qrvy8uoa" data-mut="" transform="matrix(1, 0, 0, 1, -240, 0)"/><path d="M 720 1020 L 795 945 L 870 1020" class="" style="fill: rgba(0, 0, 0, 0); stroke-width: 2px; stroke-linejoin: round;" stroke="rgba(41, 173, 255, 1)" id="jletwitu" data-mut="" transform="matrix(1, 0, 0, 1, -240, 0)"/><path d="M 900 1020 L 825 945 L 750 1020" class="" style="fill: rgba(0, 0, 0, 0); stroke-width: 2px; stroke-linejoin: round;" stroke="rgba(41, 173, 255, 1)" id="9vpqvevv" data-mut="" transform="matrix(1, 0, 0, 1, -240, 0)"/><path d="M 780 855 L 795 840 L 810 855 L 825 840 L 840 855" class="" style="fill: rgba(0, 0, 0, 0); stroke-width: 2px; stroke-linejoin: round;" stroke="rgba(41, 173, 255, 1)" id="28fk0g0s" data-mut="" transform="matrix(1, 0, 0, 1, -240, 0)"/><path d="M 720 990 L 720 960 L 840 960 L 840 990" class="" style="fill: rgba(0, 0, 0, 0); stroke-width: 2px; stroke-linejoin: round;" stroke="rgba(41, 173, 255, 1)" id="nm95a2zo" data-mut=""/><path d="M 720 870 L 720 900 L 840 900 L 840 870" class="" style="fill: rgba(0, 0, 0, 0); stroke-width: 2px; stroke-linejoin: round;" stroke="rgba(41, 173, 255, 1)" id="82ets68a" data-mut=""/><path d="M 780 900 L 780 960" class="" style="fill: rgba(0, 0, 0, 0); stroke-width: 2px; stroke-linejoin: round;" stroke="rgba(41, 173, 255, 1)" id="1btbhww4" data-mut=""/><path d="M 750 885 L 765 870 L 780 885 L 795 870 L 810 885" class="" style="fill: rgba(0, 0, 0, 0); stroke-width: 2px; stroke-linejoin: round;" stroke="rgba(41, 173, 255, 1)" id="g2mdw7ss" data-mut=""/><path d="M 900 735 L 780 645 L 840 600 L 945 675 L 945 615 L 735 765 L 735 705 L 840 780 Z" class="" style="fill: rgba(0, 0, 0, 0); stroke-width: 2px; stroke-linejoin: round;" stroke="rgba(41, 173, 255, 1)" id="6mpc5pfy" data-mut="" transform="matrix(1, 0, 0, 1, -240, 0)"/><path d="M 720 450 L 915 450 L 915 390 L 990 390 L 1020 360 L 1020 420 L 990 390" class="" style="fill: rgba(0, 0, 0, 0); stroke-width: 2px; stroke-linejoin: round;" stroke="rgba(41, 173, 255, 1)" id="rrkjfxm1" data-mut=""/><path d="M 300 480 L 360 480" class="" style="fill: rgba(0, 0, 0, 0); stroke-width: 2px; stroke-linejoin: round;" stroke="rgba(41, 173, 255, 1)" id="flv420sp"/></g></svg>