<?xml version="1.0" standalone="no"?><svg width="2448" height="2088" viewBox="396 -714 1248 1068" xmlns="http://www.w3.org/2000/svg" xmlns:xlink="http://www.w3.org/1999/xlink"><style>line.bg { stroke: rgba(3, 148, 172, 0.7); stroke-width: 1px; }circle.bg { fill: rgba(100, 220, 240, 0.7); }line.bg-sub { stroke: rgba(140, 240, 240, 0.5); stroke-width: 1px; }g.u rect, g.u path, g.u circle { fill: none; stroke-width: 2px; stroke-linejoin: round; }pattern line { vector-effect: non-scaling-stroke; }.zoomed-out pattern line { vector-effect: none; }text { stroke-width: 0px; font-family: sans-serif; }text tspan { white-space: pre; }.ui-dark { background: rgb(51, 51, 51); }.ui-dark line.bg { stroke: rgba(172, 232, 242, 0.57); stroke-width: 1px; }.ui-dark circle.bg { fill: rgba(100, 220, 240, 0.3); }.ui-dark line.bg-sub { stroke: rgba(140, 240, 240, 0.1); stroke-width: 1px; }rect.marquee { fill: rgba(234, 255, 231, 0.3); stroke: rgb(98, 137, 95); stroke-width: 1px; stroke-dasharray: 4px; vector-effect: non-scaling-stroke; }rect.highlight { fill: blue; opacity: 0.5; }.bg rect { stroke: rgba(3, 148, 172, 0.7); stroke-width: 1px; }</style><defs class="ic"></defs><defs><marker id="arrowhead" viewBox="0 0 15 15" refX="5" refY="5" markerWidth="5" markerHeight="5" orient="auto-start-reverse"><path stroke="context-stroke" fill="context-stroke" d="M 0 0 L 10 5 L 0 10 z"></path></marker></defs><g xmlns="http://www.w3.org/2000/svg" class="u current" data-layer="Layer 1" style="visibility: visible;"><path d="M 420 60 L 480 0 L 540 60 L 540 180 L 480 240 L 420 180 Z" class="" style="fill: rgba(0, 0, 0, 0); stroke-width: 2px; stroke-linejoin: round;" stroke="rgba(41, 173, 255, 1)" id="9mzo8a46" data-mut=""/><path d="M 480 60 L 480 180" class="" style="fill: rgba(0, 0, 0, 0); stroke-width: 2px; stroke-linejoin: round;" stroke="rgba(41, 173, 255, 1)" id="uonwq713" data-mut=""/><path d="M 600 0 L 660 60 L 720 0" class="" style="fill: rgba(0, 0, 0, 0); stroke-width: 2px; stroke-linejoin: round;" stroke="rgba(41, 173, 255, 1)" id="zjm3shml" data-mut=""/><path d="M 660 30 L 660 90" class="" style="fill: rgba(0, 0, 0, 0); stroke-width: 2px; stroke-linejoin: round;" stroke="rgba(41, 173, 255, 1)" id="2tbbqo4l" data-mut=""/><path d="M 840 210 L 810 240 L 810 300 L 840 330 L 870 300 L 870 240 Z" class="" style="fill: rgba(0, 0, 0, 0); stroke-width: 2px; stroke-linejoin: round;" stroke="rgba(41, 173, 255, 1)" id="w46z4tbp" data-mut=""/><path d="M 840 240 L 840 300" class="" style="fill: rgba(0, 0, 0, 0); stroke-width: 2px; stroke-linejoin: round;" stroke="rgba(41, 173, 255, 1)" id="a1uhsmnl" data-mut=""/><path d="M 930 210 L 960 240 L 990 210" class="" style="fill: rgba(0, 0, 0, 0); stroke-width: 2px; stroke-linejoin: round;" stroke="rgba(41, 173, 255, 1)" id="bfdjuhhp" data-mut=""/><path d="M 960 225 L 960 255" class="" style="fill: rgba(0, 0, 0, 0); stroke-width: 2px; stroke-linejoin: round;" stroke="rgba(41, 173, 255, 1)" id="vxus2xie" data-mut=""/><path d="M 810 -480 L 780 -450 L 855 -390 L 795 -240 L 825 -240 L 765 -390 L 840 -450 Z" class="" style="fill: rgba(0, 0, 0, 0); stroke-width: 2px; stroke-linejoin: round;" stroke="rgba(41, 173, 255, 1)" id="dupvf7xg" data-mut=""/><path d="M 1980 -180 L 2100 -660" class="" style="fill: rgba(0, 0, 0, 0); stroke-width: 2px; stroke-linejoin: round;" stroke="rgba(41, 173, 255, 1)" id="92he2zz4" data-mut="" transform="matrix(1, 0, 0, 1, -480, 0)"/><circle cx="2055" cy="-570" class="" style="stroke: rgb(41, 173, 255); fill: rgb(41, 173, 255); stroke-width: 2px; stroke-linejoin: round;" id="gkbkn7lf" r="15" data-mut="" transform="matrix(1, 0, 0, 1, -480, 15)"/><path d="M 2055 -645 L 1995 -585 L 2100 -480 L 1980 -420 L 2055 -180" class="" style="fill: rgba(0, 0, 0, 0); stroke-width: 2px; stroke-linejoin: round;" stroke="rgba(41, 173, 255, 1)" id="1mwhb9or" data-mut="" transform="matrix(1, 0, 0, 1, -480, 0)"/><path d="M 1320 -645 L 1320 -210 L 1290 -330 L 1380 -420 L 1290 -525 L 1410 -630" class="" style="fill: rgba(0, 0, 0, 0); stroke-width: 2px; stroke-linejoin: round;" stroke="rgba(41, 173, 255, 1)" id="k151dwds" data-mut=""/><circle cx="1335" cy="-585" class="" style="stroke: rgb(41, 173, 255); fill: rgb(41, 173, 255); stroke-width: 2px; stroke-linejoin: round;" id="tpowmox5" r="15" data-mut=""/><path d="M 1035 -120 L 1050 -135 L 1065 -120 L 1050 -105 Z" class="" style="fill: rgba(0, 0, 0, 0); stroke-width: 2px; stroke-linejoin: round;" stroke="rgba(41, 173, 255, 1)" id="8nlgik32" data-mut="" transform="matrix(1, 0, 0, 1, 60, 135)"/><path d="M 1020 -120 L 1050 -90 L 1080 -120" class="" style="fill: rgba(0, 0, 0, 0); stroke-width: 2px; stroke-linejoin: round;" stroke="rgba(41, 173, 255, 1)" id="vcd9htz7" data-mut="" transform="matrix(1, 0, 0, 1, 60, 135)"/><path d="M 1050 -105 L 1050 -75" class="" style="fill: rgba(0, 0, 0, 0); stroke-width: 2px; stroke-linejoin: round;" stroke="rgba(41, 173, 255, 1)" id="pj702tvr" data-mut="" transform="matrix(1, 0, 0, 1, 60, 135)"/><path d="M 1140 -120 L 1170 -90 L 1200 -120" class="" style="fill: rgba(0, 0, 0, 0); stroke-width: 2px; stroke-linejoin: round;" stroke="rgba(41, 173, 255, 1)" id="wut0qfub" data-mut="" transform="matrix(1, 0, 0, 1, 60, 135)"/><path d="M 1170 -120 L 1155 -135 L 1170 -150 L 1185 -135 Z" class="" style="fill: rgba(0, 0, 0, 0); stroke-width: 2px; stroke-linejoin: round;" stroke="rgba(41, 173, 255, 1)" id="t92zlcjc" data-mut="" transform="matrix(1, 0, 0, 1, 60, 135)"/><path d="M 1170 -120 L 1170 -60" class="" style="fill: rgba(0, 0, 0, 0); stroke-width: 2px; stroke-linejoin: round;" stroke="rgba(41, 173, 255, 1)" id="3di4poa8" data-mut="" transform="matrix(1, 0, 0, 1, 60, 135)"/><path d="M 1860 -180 L 1995 -690" class="" style="fill: rgba(0, 0, 0, 0); stroke-width: 2px; stroke-linejoin: round;" stroke="rgba(41, 173, 255, 1)" id="0t10d1ki" data-mut="" transform="matrix(1, 0, 0, 1, -780, 0)"/><path d="M 1980 -180 L 1860 -420 L 1980 -480 L 1875 -585 L 1935 -645" class="" style="fill: rgba(0, 0, 0, 0); stroke-width: 2px; stroke-linejoin: round;" stroke="rgba(41, 173, 255, 1)" id="2o1hjg96" data-mut="" transform="matrix(1, 0, 0, 1, -780, 0)"/><circle cx="1935" cy="-555" class="" style="stroke: rgb(41, 173, 255); fill: rgb(41, 173, 255); stroke-width: 2px; stroke-linejoin: round;" id="m3xmb6ek" r="15" data-mut="" transform="matrix(1, 0, 0, 1, -780, 0)"/></g></svg>